<?xml version="1.0" encoding="UTF-8" standalone="no"?>
<!DOCTYPE svg PUBLIC "-//W3C//DTD SVG 1.1//EN" "http://www.w3.org/Graphics/SVG/1.1/DTD/svg11.dtd">
<svg width="100%" height="100%" viewBox="0 0 832 164" version="1.1" xmlns="http://www.w3.org/2000/svg" xmlns:xlink="http://www.w3.org/1999/xlink" xml:space="preserve" xmlns:serif="http://www.serif.com/" style="fill-rule:evenodd;clip-rule:evenodd;stroke-linejoin:round;stroke-miterlimit:2;">
    <g transform="matrix(1,0,0,1,-43147.2,-21949.2)">
        <g transform="matrix(2.18407,0,0,1.47256,43213.5,23091.4)">
            <g transform="matrix(0.269146,0,0,0.0913682,-60.7707,-829.545)">
                <g transform="matrix(0.0463595,0,0,0.589958,-2114.51,485.286)">
                    <g transform="matrix(6.47267,0,0,2.22222,47541.3,-3559.09)">
                        <path d="M925.233,1753.92L925.034,2317.21L506.347,2317.21L506.536,2389.72L434.036,2389.71L434.036,2462.22L361.536,2462.22L361.536,2317.21L150.979,2317.21L150.979,1753.92L925.233,1753.92Z" style="fill:white;"/>
                    </g>
                    <g transform="matrix(4.80762,0,0,1.65057,48126.5,186.232)">
                        <path d="M558.42,751.69L558.59,659.73C558.586,659.332 558.258,659.007 557.86,659.007C557.799,659.007 557.739,659.015 557.68,659.03C555.87,659.48 554.06,659.31 552.21,659.3C525.45,659.213 496.63,659.2 465.75,659.26C464.957,659.26 464.56,658.863 464.56,658.07L464.57,565.94C464.57,565.594 464.286,565.31 463.94,565.31L371.3,565.25C371.048,565.25 370.84,565.047 370.84,564.8L370.75,472.33C370.75,471.825 370.335,471.41 369.83,471.41L277.66,471.54C277.314,471.54 277.03,471.256 277.03,470.91L277.03,284.49C277.03,284.095 277.36,283.77 277.76,283.77L369.44,283.79C370.164,283.79 370.76,283.194 370.76,282.47C370.767,253.423 370.78,224.767 370.8,196.5C370.8,194.58 370.707,192.67 370.52,190.77C370.519,190.759 370.518,190.748 370.518,190.736C370.497,190.336 370.805,189.991 371.2,189.971C371.213,189.97 371.227,189.97 371.24,189.97L557.7,189.98C557.974,189.98 558.2,190.206 558.2,190.48L558.18,283.32C558.18,283.973 558.503,284.247 559.15,284.14C559.937,284.013 560.693,283.947 561.42,283.94C591.48,283.673 621.517,283.683 651.53,283.97C651.533,283.97 651.537,283.97 651.54,283.97C651.919,283.97 652.23,283.659 652.23,283.28L652.24,191.03C652.239,190.536 652.627,190.122 653.12,190.09C654.767,189.99 656.373,189.937 657.94,189.93C712.793,189.87 767.233,189.86 821.26,189.9C827.473,189.9 833.46,189.983 839.22,190.15C839.536,190.155 839.795,190.414 839.8,190.73C839.85,193.22 839.66,253.693 839.46,280.26C839.453,281.187 839.463,282.063 839.49,282.89C839.506,283.422 839.948,283.85 840.48,283.85L932.38,283.95C933.027,283.95 933.56,284.483 933.56,285.13L933.55,471.28C933.55,471.287 933.55,471.293 933.55,471.3C933.539,471.552 933.328,471.751 933.082,471.741C933.074,471.741 933.067,471.741 933.06,471.74C931.913,471.64 930.803,471.587 929.73,471.58C904.357,471.44 874.68,471.43 840.7,471.55C840.151,471.55 839.7,472.001 839.7,472.55L839.71,565.19C839.71,565.283 839.66,565.33 839.56,565.33L747.07,565.33C746.461,565.33 745.96,565.827 745.96,566.43L745.97,658.87C745.97,659.277 745.767,659.487 745.36,659.5C744.45,659.54 743.56,659.27 742.63,659.27C711.803,659.217 681.94,659.207 653.04,659.24C652.38,659.24 652.05,659.57 652.05,660.23L652.07,752.45C652.07,752.797 651.897,752.97 651.55,752.97L559.75,753.02C558.857,753.02 558.413,752.577 558.42,751.69Z" style="fill:rgb(0,53,120);"/>
                    </g>
                    <g transform="matrix(6.47267,0,0,2.22222,47541.3,-3559.09)">
                        <path d="M150.979,2317.21L361.536,2317.21L361.536,2462.22L434.036,2462.22L434.036,2534.73L361.536,2534.73L361.536,2607.24L289.036,2607.24L289.036,2534.73L290.899,2534.73L290.899,2533.8L289.036,2533.8L289.036,2389.72L150.979,2389.72L150.979,2317.21ZM150.979,1753.92L150.979,1681.41L925.233,1681.41L925.233,1753.92L150.979,1753.92ZM150.979,2317.21L78.473,2317.21L78.473,1753.92L150.979,1753.92L150.979,2317.21ZM434.036,2462.22L434.036,2389.71L506.536,2389.72L506.347,2317.21L925.034,2317.21L925.034,2389.72L506.536,2389.72L506.536,2462.22L434.036,2462.22ZM925.233,1753.92L997.54,1753.92L997.54,2317.21L925.034,2317.21L925.233,1753.92Z"/>
                    </g>
                </g>
                <g transform="matrix(0.116216,0,0,0.507754,180.714,608.556)">
                    <g transform="matrix(1679.38,0,0,1679.38,11667.4,1582.74)">
                    </g>
                    <text x="2417.38px" y="1582.74px" style="font-family:'SpaceMono-Bold', 'Space Mono', monospace;font-weight:700;font-size:1679.38px;">DigiMedic</text>
                </g>
            </g>
        </g>
    </g>
</svg>
