<?xml version="1.0" encoding="utf-8"?>
<!-- Generator: Adobe Illustrator 21.0.2, SVG Export Plug-In . SVG Version: 6.00 Build 0)  -->
<svg version="1.1" id="Page_1" xmlns="http://www.w3.org/2000/svg" xmlns:xlink="http://www.w3.org/1999/xlink" x="0px" y="0px"
	 viewBox="0 0 101 70" style="enable-background:new 0 0 101 70;" xml:space="preserve">
<style type="text/css">
	.st0{fill-rule:evenodd;clip-rule:evenodd;fill:#92A9CD;}
	.st1{fill-rule:evenodd;clip-rule:evenodd;fill:#2B297E;}
</style>
<g id="Vrstva_1_1_">
	<g>
		<g>
			<path class="st0" d="M39.1,53.3l5.9-0.5c-4.5,6.9-6,8.8-13.6,10.9c-2,0.6-4,0.4-6,0.4c-5,0-8-1.7-11.2-4.8
				c-3.3-3.1-4.9-6.9-4.9-11.7c0-6.3,2.8-12.7,8.1-18.8c5.8-6.8,12.2-9.9,19.7-9.9c2.4,0,4.7,0.4,6.7,1.3c5.9,2.4,2.4,1.6,6.1-0.4
				l1.8,0.2l-3.7,15.5l-1.8-0.3L46,33.3c-0.3-4.5,0.1-3.3-1.2-5.4c-1.3-2-3.4-4.1-6.4-4.1c-5.3,0-9.3,2.5-13.8,10
				c-2.3,3.9-5.9,17-2.8,21C27.1,61.8,35.1,61,39.1,53.3L39.1,53.3z M28.6,5.9l4.9,0.2l4,5.5l6.8-5.7h5.3l-8.4,11.9h-9L28.6,5.9
				L28.6,5.9z M61.7,57.6c-0.1,0.4-0.1,1-0.1,1.2c0,2.9,4.9,0.5,4.7,2.1l-0.1,0.7l-0.3,2l-21.1-0.2l0.5-2.8c0.7,0,2.1,0.1,2.9-0.2
				c3.7-1.2,3.4-3.8,4.1-6.2L60.6,26l-1-1.8l-3.5-1.1l0.1-2.1h22.4c3.1,0,9.8,4.3,9.5,9.7c-0.4,5.8-7.5,11.4-12.2,12.5l6.6,16.3
				l4.5,1.7l-0.4,2.3l-13.8,0l-8.2-17.7C63,51,62.6,52.3,61.7,57.6L61.7,57.6z M66.4,40c0.6,0,0.6,0.2,1.7,0.2
				c3.6,0,4.8-1.3,5.9-2.5c1.9-1.9,2.3-4.6,3.1-9.2c0.5-2.9-5.4-5.4-6.1-3.2L66.4,40L66.4,40z"/>
			<g>
				<g>
					<path class="st1" d="M9.7,31.9c0.5-2.3-3.6-1.3-3.5-2.4l0.1-0.8l12.5,0.1l-0.3,1.2c-1.2,0-2.6,0.2-3.2,0.7
						c-2.2,2.1-3.7,11.2-4.5,16c-1.7,10,7.7,8.8,10.2,5.8c3.1-3.8,4.9-11.8,6.5-17.7c0.8-2.9,1.6-4.9-1.9-4.7l0-1.3l8.8,0l0,1.5
						c-1.1,0.1-3-0.4-3.5,0.7c-2.5,6.3-3.6,18.8-8.2,23.1c-1.9,1.8-4.3,3-8,3c-3.1,0-6.1-1.7-7.6-3.1C3,50.3,9.1,35,9.7,31.9
						L9.7,31.9z M20.6,27.4L19,27.2c1.4-1.5,5.6-8.1,9-8.1c0.3,0,3.1,0.1,2.5,1.1C29.6,21.9,21.3,26.8,20.6,27.4L20.6,27.4z
						 M51.6,30.9C48,31,40.7,30.1,38.9,33.2l-1.3,2.3l-1.2-0.2l1.9-6.5l21.4-0.1l-22,25.7l8.8-0.1c2.5,0,4.3-2.8,6.3-5.2l1.4,0
						l-2.8,7.9L29.9,57l0.2-1.7L51.6,30.9L51.6,30.9z M64.8,55l3.1,0.1l-0.5,1.9l-11.2,0l0.5-1.9l2.9-0.2l5.2-24.7l-2.6,0l0.1-1.7
						h10.8l-0.3,1.7l-2.7,0L64.8,55L64.8,55z M71.6,56.9l-1.4-0.3l2.3-10.2l1.3,0.5c0,2.7,0.7,3.6,1.5,5.3c3.7,7.4,16.5-0.4,6.2-7.5
						c-3.8-2.6-6.4-5.2-5.8-9.6c1.2-7.9,9.3-8.2,15.3-4.7l1.4-1.9l1.4,0.1l-1.6,9.1l-2-0.4c1.9-6.5-5.7-9.1-9.6-5
						c-3,3.2,2.4,7,5.5,9c4.8,3,4.9,9.2,1.8,13.3c-2.7,3.6-9.3,3.3-14.5,0.2L71.6,56.9L71.6,56.9z"/>
				</g>
			</g>
		</g>
	</g>
</g>
</svg>
