<?xml version="1.0" encoding="utf-8"?>
<!DOCTYPE svg PUBLIC "-//W3C//DTD SVG 1.0//EN" "http://www.w3.org/TR/2001/REC-SVG-20010904/DTD/svg10.dtd">
<svg version="1.0" id="Vrstva_1" xmlns="http://www.w3.org/2000/svg" xmlns:xlink="http://www.w3.org/1999/xlink" x="0px" y="0px"
	 width="400px" height="34.26px" viewBox="0.429 404.665 594 50.871" enable-background="new 0.429 404.665 594 50.871"
	 xml:space="preserve">
<title>logo-opz-rgb</title>
<path fill="#D71440" d="M178.537,450.236c-0.146,0-0.318,0-0.489,0v5.261h12.28c1.223-1.067,2.515-2.275,3.852-3.603
	C200.757,445.302,184.767,449.625,178.537,450.236"/>
<path fill="#D71440" d="M178.048,429.342v13.915c2.28-1.885,6.206-4.009,13.459-9.431
	C199.808,427.619,192.843,429.302,178.048,429.342"/>
<path fill="#D71440" d="M187.705,408.14h-9.657v8.33c3.783-2.966,7.346-5.423,7.346-5.423
	C186.157,409.926,186.936,408.957,187.705,408.14"/>
<path fill="#D71440" d="M225.41,408.14h-24.917c-0.029,3.891-7.542,6.367-8.956,6.856c-3.745,2.311-8.595,5.158-10.455,7.024
	c-3.416,3.411,7.224,1.081,20.517,1.042c3.69-0.02,5.81,3.308,3.916,5.629c-4.111,5.011-9.104,8.506-14.517,12.029
	c-7.449,4.87,11.521-3.337,11.521,6.344c0,3.356-2.496,6.177-5.76,8.433h28.651V408.14"/>
<path fill="#C9DA36" d="M106.992,431.901V408.14h-9.696c-3.788,34.587-27.31,25.993-37.662,20.404v26.953H75.61
	C83.044,427.13,97.385,427.619,106.992,431.901"/>
<path fill="#C9DA36" d="M95.041,408.14H59.635v18.785C80.373,431.716,89.53,421.075,95.041,408.14 M65.792,416.636
	c0-3.666,2.966-6.651,6.632-6.651c3.675,0,6.641,2.986,6.641,6.651c0,3.662-2.966,6.632-6.641,6.632
	C68.758,423.268,65.792,420.298,65.792,416.636z"/>
<path fill="#FFC121" d="M36.118,434.133c-11.276,0-20.414-9.127-20.414-20.403c0-1.943,0.279-3.803,0.778-5.589H0.429v20.708
	l11.061-11.516c0.572,3.802,1.875,7.366,3.769,10.538l-14.83,1.82v25.808h47.362v-25.029
	C44.488,432.777,40.47,434.133,36.118,434.133 M15.283,442.932l1.836-12.357c2.584,2.672,5.697,4.865,9.157,6.377L15.283,442.932z
	 M36.118,452.917l-5.589-15.368c1.816,0.349,3.676,0.534,5.589,0.534s3.778-0.186,5.589-0.534L36.118,452.917z"/>
<path fill="#2E5980" d="M121.553,434.72c0,0,21.325,15.862,43.662-10.371c0,0-18.227-22.734-46.374,2.457v28.69h47.367v-21.819
	C156.689,443.77,139.902,454.655,121.553,434.72 M142.774,420.341c3.661,0,6.632,2.966,6.632,6.623c0,3.665-2.971,6.656-6.632,6.656
	c-3.666,0-6.641-2.991-6.641-6.656C136.133,423.307,139.108,420.341,142.774,420.341z"/>
<path fill="#2E5980" d="M137.161,408.14h-18.319v13.078C122.938,415.672,128.962,410.004,137.161,408.14"/>
<polyline fill="#2E5980" points="267.799,424.124 265.508,424.124 265.508,411.703 265.464,411.703 260.546,417.884 
	260.173,417.884 255.25,411.703 255.211,411.703 255.211,424.124 252.92,424.124 252.92,408.159 255.074,408.159 260.36,414.713 
	265.666,408.159 267.799,408.159 267.799,424.124 "/>
<rect x="271.264" y="408.159" fill="#2E5980" width="2.291" height="15.964"/>
<polyline fill="#2E5980" points="291.864,424.124 289.897,424.124 279.227,411.844 279.227,424.124 277.068,424.124 
	277.068,408.159 278.89,408.159 289.701,420.522 289.701,408.159 291.864,408.159 291.864,424.124 "/>
<rect x="295.393" y="408.159" fill="#2E5980" width="2.291" height="15.964"/>
<path fill="#2E5980" d="M308.808,411.678c-1.366-1.287-2.672-1.674-3.744-1.674c-1.487,0-2.525,0.778-2.525,1.905
	c0,3.068,6.9,3.029,6.9,8.1c0,2.495-1.898,4.341-4.468,4.341c-1.742,0-3.146-0.47-4.482-1.492v-2.888
	c1.179,1.492,2.651,2.314,4.213,2.314c1.781,0,2.604-1.125,2.604-2.026c0-3.299-6.905-3.662-6.905-8.042
	c0-2.604,1.923-4.262,4.85-4.262c1.214,0,2.428,0.372,3.559,1.13V411.678"/>
<polyline fill="#2E5980" points="323.917,410.23 318.396,410.23 318.396,424.124 316.1,424.124 316.1,410.23 310.575,410.23 
	310.575,408.159 323.917,408.159 323.917,410.23 "/>
<polyline fill="#2E5980" points="335.134,410.23 328.361,410.23 328.361,415.035 334.89,415.035 334.89,417.106 328.361,417.106 
	328.361,422.059 335.339,422.059 335.339,424.124 326.07,424.124 326.07,408.159 335.134,408.159 335.134,410.23 "/>
<path fill="#2E5980" d="M341.844,408.159c3.235,0,5.237,1.723,5.237,4.488c0,1.84-0.954,3.211-2.662,3.905
	c1.458,0.959,2.339,2.433,3.567,4.42c0.676,1.087,1.062,1.635,2.168,3.151h-2.74l-2.109-3.274c-2.104-3.274-3.05-3.661-4.239-3.661
	h-0.959v6.935h-2.271v-15.964H341.844 M340.107,415.143h1.473c2.478,0,3.173-1.272,3.153-2.604c-0.025-1.493-0.92-2.414-3.153-2.414
	h-1.473V415.143z"/>
<path fill="#2E5980" d="M359.484,411.678c-1.352-1.287-2.658-1.674-3.744-1.674c-1.454,0-2.516,0.778-2.516,1.905
	c0,3.068,6.896,3.029,6.896,8.1c0,2.495-1.88,4.341-4.465,4.341c-1.737,0-3.132-0.47-4.479-1.492v-2.888
	c1.166,1.492,2.662,2.314,4.215,2.314c1.777,0,2.599-1.125,2.599-2.026c0-3.299-6.896-3.662-6.896-8.042
	c0-2.604,1.923-4.262,4.85-4.262c1.204,0,2.413,0.372,3.539,1.13V411.678"/>
<polyline fill="#2E5980" points="374.607,410.23 369.081,410.23 369.081,424.124 366.791,424.124 366.791,410.23 361.265,410.23 
	361.265,408.159 374.607,408.159 374.607,410.23 "/>
<polyline fill="#2E5980" points="382.383,424.266 381.914,424.266 375.019,408.159 377.309,408.159 382.095,419.377 
	386.867,408.159 389.138,408.159 382.383,424.266 "/>
<path fill="#2E5980" d="M397.835,407.954c5.257,0,8.574,3.749,8.574,8.193c0,4.292-3.215,8.203-8.619,8.203
	c-5.217,0-8.535-3.871-8.535-8.203C389.255,411.722,392.653,407.954,397.835,407.954 M397.835,422.245
	c3.578,0,6.22-2.623,6.22-6.098c0-3.5-2.642-6.084-6.22-6.084c-3.563,0-6.2,2.584-6.2,6.084
	C391.635,419.622,394.272,422.245,397.835,422.245z"/>
<polyline fill="#2E5980" points="414.98,410.23 414.98,408.159 428.752,408.159 418.587,422.059 428.752,422.059 428.752,424.124 
	414.348,424.124 424.519,410.23 414.98,410.23 "/>
<path fill="#2E5980" d="M430.876,408.159h6.206c5.893,0,8.497,4.213,8.497,7.987c0,4.086-3.221,7.977-8.478,7.977h-6.226V408.159
	 M433.171,422.059h3.647c5.197,0,6.382-3.95,6.382-5.913c0-3.215-2.026-5.917-6.485-5.917h-3.544V422.059z"/>
<path fill="#2E5980" d="M452.47,408.159c3.23,0,5.261,1.723,5.261,4.488c0,1.84-0.983,3.211-2.682,3.905
	c1.454,0.959,2.329,2.433,3.563,4.42c0.672,1.087,1.082,1.635,2.169,3.151h-2.741l-2.109-3.274c-2.09-3.274-3.049-3.661-4.22-3.661
	h-0.953v6.935h-2.296v-15.964H452.47 M450.757,415.143h1.469c2.451,0,3.151-1.272,3.137-2.604c-0.024-1.493-0.93-2.414-3.137-2.414
	h-1.469V415.143z"/>
<path fill="#2E5980" d="M476.394,424.124h-2.335l-2.124-4.708h-6.794l-2.007,4.708h-2.354l6.853-16.042h1.62L476.394,424.124
	 M466.037,417.37h4.959l-2.584-5.79L466.037,417.37z"/>
<polyline fill="#2E5980" points="481.899,424.266 481.429,424.266 474.534,408.159 476.819,408.159 481.611,419.377 
	486.378,408.159 488.668,408.159 481.899,424.266 "/>
<path fill="#2E5980" d="M497.351,407.954c5.257,0,8.594,3.749,8.594,8.193c0,4.292-3.234,8.203-8.633,8.203
	c-5.222,0-8.517-3.871-8.517-8.203C488.795,411.722,492.172,407.954,497.351,407.954 M497.351,422.245
	c3.578,0,6.22-2.623,6.22-6.098c0-3.5-2.642-6.084-6.22-6.084c-3.563,0-6.207,2.584-6.207,6.084
	C491.144,419.622,493.789,422.245,497.351,422.245z"/>
<polyline fill="#2E5980" points="519.199,410.23 513.678,410.23 513.678,424.124 511.387,424.124 511.387,410.23 505.862,410.23 
	505.862,408.159 519.199,408.159 519.199,410.23 "/>
<polyline fill="#2E5980" points="536.124,424.124 534.161,424.124 523.5,411.844 523.5,424.124 521.352,424.124 521.352,408.159 
	523.168,408.159 533.974,420.522 533.974,408.159 536.124,408.159 536.124,424.124 "/>
<rect x="539.667" y="408.159" fill="#2E5980" width="2.296" height="15.964"/>
<path fill="#2E5980" d="M559.082,411.722c-1.957-1.146-3.636-1.66-5.501-1.66c-3.636,0-6.362,2.604-6.362,6.104
	c0,3.578,2.618,6.079,6.471,6.079c1.796,0,3.764-0.636,5.56-1.825v2.516c-1.571,0.822-3.269,1.414-5.765,1.414
	c-6.001,0-8.619-4.625-8.619-7.958c0-4.875,3.666-8.438,8.736-8.438c1.659,0,3.318,0.392,5.48,1.316V411.722"/>
<polyline fill="#2E5980" points="574.044,410.23 568.523,410.23 568.523,424.124 566.233,424.124 566.233,410.23 560.703,410.23 
	560.703,408.159 574.044,408.159 574.044,410.23 "/>
<polyline fill="#2E5980" points="581.801,424.266 581.351,424.266 574.436,408.159 576.726,408.159 581.538,419.377 
	586.304,408.159 588.576,408.159 581.801,424.266 "/>
<path fill="#2E5980" d="M594.429,404.665l-3.029,2.721h-1.371l1.742-2.721H594.429 M592.648,424.124h-2.291v-15.964h2.291V424.124z"
	/>
<path fill="#2E5980" d="M266.561,442.932c-1.967-1.148-3.651-1.658-5.506-1.658c-3.641,0-6.363,2.594-6.363,6.098
	c0,3.578,2.628,6.055,6.466,6.055c1.801,0,3.769-0.612,5.564-1.801v2.516c-1.566,0.822-3.27,1.395-5.78,1.395
	c-5.986,0-8.619-4.606-8.619-7.962c0-4.847,3.676-8.409,8.761-8.409c1.64,0,3.304,0.392,5.477,1.312V442.932 M259.704,438.592
	l-2.805-2.74h1.405l2.682,1.468l2.697-1.468h1.404l-2.814,2.74H259.704z"/>
<polyline fill="#2E5980" points="278.59,441.435 271.822,441.435 271.822,446.246 278.356,446.246 278.356,448.312 271.822,448.312 
	271.822,453.26 278.806,453.26 278.806,455.331 269.537,455.331 269.537,439.37 278.59,439.37 278.59,441.435 "/>
<path fill="#2E5980" d="M288.825,442.889c-1.36-1.293-2.682-1.654-3.759-1.654c-1.473,0-2.525,0.753-2.525,1.879
	c0,3.069,6.906,3.011,6.906,8.101c0,2.496-1.889,4.321-4.469,4.321c-1.732,0-3.132-0.47-4.473-1.473v-2.907
	c1.179,1.512,2.647,2.333,4.218,2.333c1.777,0,2.594-1.124,2.594-2.025c0-3.294-6.906-3.666-6.906-8.041
	c0-2.599,1.923-4.258,4.851-4.258c1.219,0,2.428,0.372,3.563,1.126V442.889"/>
<polyline fill="#2E5980" points="305.519,455.331 302.373,455.331 294.248,447.43 294.248,455.331 291.952,455.331 291.952,439.37 
	294.248,439.37 294.248,446.677 300.958,439.37 303.821,439.37 296.866,446.917 305.519,455.331 "/>
<path fill="#2E5980" d="M316.355,441.435h-6.76v4.811h6.525v2.066h-6.525v4.948h6.98v2.07h-9.271V439.37h9.05V441.435
	 M315.264,435.851l-3.03,2.74h-1.37l1.747-2.74H315.264z"/>
<path fill="#2E5980" d="M329.584,439.37c3.234,0,5.237,1.718,5.237,4.459c0,1.865-0.954,3.235-2.653,3.91
	c1.434,0.959,2.329,2.434,3.539,4.438c0.694,1.083,1.081,1.641,2.188,3.153h-2.74l-2.11-3.274c-2.104-3.27-3.068-3.642-4.233-3.642
	h-0.964v6.916h-2.29V439.37H329.584 M327.847,446.349h1.473c2.457,0,3.172-1.272,3.133-2.6c-0.024-1.492-0.9-2.417-3.133-2.417
	h-1.473V446.349z"/>
<polyline fill="#2E5980" points="348.702,441.435 341.953,441.435 341.953,446.246 348.476,446.246 348.476,448.312 
	341.953,448.312 341.953,453.26 348.926,453.26 348.926,455.331 339.657,455.331 339.657,439.37 348.702,439.37 348.702,441.435 "/>
<path fill="#2E5980" d="M356.209,439.37c3.499,0,5.095,2.065,5.095,4.586c0,2.516-1.698,4.479-5.403,4.479h-2.374v6.896h-2.285
	V439.37H356.209 M353.527,446.369h2.604c1.698,0,2.805-0.9,2.805-2.501c0-1.18-0.637-2.433-2.727-2.433h-2.683V446.369z"/>
<path fill="#2E5980" d="M376.697,449.046c0,3.91-2.335,6.49-7.082,6.49c-3.377,0-6.651-1.884-6.651-6.245v-9.921h2.291v9.432
	c0,1.806,0.225,2.559,0.964,3.279c0.9,0.915,2.045,1.346,3.436,1.346c1.762,0,3.029-0.553,3.744-1.288
	c0.822-0.817,1.003-1.986,1.003-3.479v-9.289h2.296V449.046"/>
<path fill="#2E5980" d="M379.843,439.37h4.646c3.44,0,4.913,2.065,4.913,4.071c0,1.66-0.777,2.742-2.437,3.422v0.039
	c2.397,0.45,3.847,2.022,3.847,4.176c0,1.962-1.469,4.253-5.486,4.253h-5.482V439.37 M382.16,446.203h1.511
	c2.271,0,3.383-0.837,3.383-2.56c0-1.181-0.7-2.208-2.81-2.208h-2.084V446.203z M382.16,453.26h2.861
	c2.703,0,3.417-1.326,3.417-2.516c0-1.454-1.12-2.478-3.538-2.478h-2.74V453.26z"/>
<polyline fill="#2E5980" points="395.295,453.26 402.5,453.26 402.5,455.331 393.004,455.331 393.004,439.37 395.295,439.37 
	395.295,453.26 "/>
<rect x="404.521" y="439.37" fill="#2E5980" width="2.295" height="15.961"/>
<polyline fill="#2E5980" points="423.922,455.331 420.75,455.331 412.65,447.43 412.65,455.331 410.335,455.331 410.335,439.37 
	412.65,439.37 412.65,446.677 419.36,439.37 422.208,439.37 415.268,446.917 423.922,455.331 "/>
<polyline fill="#2E5980" points="435.325,439.37 438.086,439.37 432.154,446.902 432.154,455.331 429.863,455.331 429.863,446.883 
	423.947,439.37 426.707,439.37 430.984,444.871 435.325,439.37 "/>
</svg>
